<?xml version="1.0" encoding="UTF-8" standalone="no"?><svg xmlns="http://www.w3.org/2000/svg" xmlns:xlink="http://www.w3.org/1999/xlink" contentScriptType="application/ecmascript" contentStyleType="text/css" height="369px" preserveAspectRatio="none" style="width:467px;height:369px;" version="1.1" viewBox="0 0 467 369" width="467px" zoomAndPan="magnify"><defs><filter height="300%" id="feubfqqrjg2i0" width="300%" x="-1" y="-1"><feGaussianBlur result="blurOut" stdDeviation="2.0"/><feColorMatrix in="blurOut" result="blurOut2" type="matrix" values="0 0 0 0 0 0 0 0 0 0 0 0 0 0 0 0 0 0 .4 0"/><feOffset dx="4.0" dy="4.0" in="blurOut2" result="blurOut3"/><feBlend in="SourceGraphic" in2="blurOut3" mode="normal"/></filter></defs><g><rect fill="#FFFFFF" filter="url(#feubfqqrjg2i0)" height="104.5313" style="stroke:#000000;stroke-width:2.0;" width="443.5" x="10" y="163.5625"/><line style="stroke:#383838;stroke-width:1.0;stroke-dasharray:5.0,5.0;" x1="53" x2="53" y1="88.2969" y2="285.0938"/><line style="stroke:#383838;stroke-width:1.0;stroke-dasharray:5.0,5.0;" x1="188.5" x2="188.5" y1="88.2969" y2="285.0938"/><line style="stroke:#383838;stroke-width:1.0;stroke-dasharray:5.0,5.0;" x1="305.5" x2="305.5" y1="88.2969" y2="285.0938"/><line style="stroke:#383838;stroke-width:1.0;stroke-dasharray:5.0,5.0;" x1="401.5" x2="401.5" y1="88.2969" y2="285.0938"/><text fill="#000000" font-family="sans-serif" font-size="14" lengthAdjust="spacingAndGlyphs" textLength="60" x="20" y="84.9951">Аналитик</text><ellipse cx="53" cy="15" fill="#F8F8F8" filter="url(#feubfqqrjg2i0)" rx="8" ry="8" style="stroke:#383838;stroke-width:2.0;"/><path d="M53,23 L53,50 M40,31 L66,31 M53,50 L40,65 M53,50 L66,65 " fill="none" filter="url(#feubfqqrjg2i0)" style="stroke:#383838;stroke-width:2.0;"/><text fill="#000000" font-family="sans-serif" font-size="14" lengthAdjust="spacingAndGlyphs" textLength="60" x="20" y="297.0889">Аналитик</text><ellipse cx="53" cy="310.3906" fill="#F8F8F8" filter="url(#feubfqqrjg2i0)" rx="8" ry="8" style="stroke:#383838;stroke-width:2.0;"/><path d="M53,318.3906 L53,345.3906 M40,326.3906 L66,326.3906 M53,345.3906 L40,360.3906 M53,345.3906 L66,360.3906 " fill="none" filter="url(#feubfqqrjg2i0)" style="stroke:#383838;stroke-width:2.0;"/><text fill="#000000" font-family="sans-serif" font-size="14" lengthAdjust="spacingAndGlyphs" textLength="121" x="125.5" y="84.9951">Репозиторий с API</text><path d="M171,36 C171,26 189,26 189,26 C189,26 207,26 207,36 L207,62 C207,72 189,72 189,72 C189,72 171,72 171,62 L171,36 " fill="#F8F8F8" filter="url(#feubfqqrjg2i0)" style="stroke:#000000;stroke-width:1.5;"/><path d="M171,36 C171,46 189,46 189,46 C189,46 207,46 207,36 " fill="none" style="stroke:#000000;stroke-width:1.5;"/><text fill="#000000" font-family="sans-serif" font-size="14" lengthAdjust="spacingAndGlyphs" textLength="121" x="125.5" y="297.0889">Репозиторий с API</text><path d="M171,310.3906 C171,300.3906 189,300.3906 189,300.3906 C189,300.3906 207,300.3906 207,310.3906 L207,336.3906 C207,346.3906 189,346.3906 189,346.3906 C189,346.3906 171,346.3906 171,336.3906 L171,310.3906 " fill="#F8F8F8" filter="url(#feubfqqrjg2i0)" style="stroke:#000000;stroke-width:1.5;"/><path d="M171,310.3906 C171,320.3906 189,320.3906 189,320.3906 C189,320.3906 207,320.3906 207,310.3906 " fill="none" style="stroke:#000000;stroke-width:1.5;"/><text fill="#000000" font-family="sans-serif" font-size="14" lengthAdjust="spacingAndGlyphs" textLength="81" x="262.5" y="84.9951">Разработчик</text><ellipse cx="306" cy="15" fill="#F8F8F8" filter="url(#feubfqqrjg2i0)" rx="8" ry="8" style="stroke:#383838;stroke-width:2.0;"/><path d="M306,23 L306,50 M293,31 L319,31 M306,50 L293,65 M306,50 L319,65 " fill="none" filter="url(#feubfqqrjg2i0)" style="stroke:#383838;stroke-width:2.0;"/><text fill="#000000" font-family="sans-serif" font-size="14" lengthAdjust="spacingAndGlyphs" textLength="81" x="262.5" y="297.0889">Разработчик</text><ellipse cx="306" cy="310.3906" fill="#F8F8F8" filter="url(#feubfqqrjg2i0)" rx="8" ry="8" style="stroke:#383838;stroke-width:2.0;"/><path d="M306,318.3906 L306,345.3906 M293,326.3906 L319,326.3906 M306,345.3906 L293,360.3906 M306,345.3906 L319,360.3906 " fill="none" filter="url(#feubfqqrjg2i0)" style="stroke:#383838;stroke-width:2.0;"/><rect fill="#F8F8F8" filter="url(#feubfqqrjg2i0)" height="30.2969" style="stroke:#383838;stroke-width:1.5;" width="80" x="359.5" y="53"/><text fill="#000000" font-family="sans-serif" font-size="14" lengthAdjust="spacingAndGlyphs" textLength="66" x="366.5" y="72.9951">Artifactory</text><rect fill="#F8F8F8" filter="url(#feubfqqrjg2i0)" height="30.2969" style="stroke:#383838;stroke-width:1.5;" width="80" x="359.5" y="284.0938"/><text fill="#000000" font-family="sans-serif" font-size="14" lengthAdjust="spacingAndGlyphs" textLength="66" x="366.5" y="304.0889">Artifactory</text><polygon fill="#383838" points="177,115.4297,187,119.4297,177,123.4297,181,119.4297" style="stroke:#383838;stroke-width:1.0;"/><line style="stroke:#383838;stroke-width:1.0;" x1="53" x2="183" y1="119.4297" y2="119.4297"/><text fill="#000000" font-family="sans-serif" font-size="13" lengthAdjust="spacingAndGlyphs" textLength="72" x="60" y="114.3638">Pull Request</text><polygon fill="#383838" points="64,144.5625,54,148.5625,64,152.5625,60,148.5625" style="stroke:#383838;stroke-width:1.0;"/><line style="stroke:#383838;stroke-width:1.0;stroke-dasharray:2.0,2.0;" x1="58" x2="305" y1="148.5625" y2="148.5625"/><text fill="#000000" font-family="sans-serif" font-size="13" lengthAdjust="spacingAndGlyphs" textLength="75" x="70" y="143.4966">Code Review</text><path d="M10,163.5625 L73,163.5625 L73,170.5625 L63,180.5625 L10,180.5625 L10,163.5625 " fill="#EEEEEE" style="stroke:#000000;stroke-width:1.0;"/><rect fill="none" height="104.5313" style="stroke:#000000;stroke-width:2.0;" width="443.5" x="10" y="163.5625"/><text fill="#000000" font-family="sans-serif" font-size="13" font-weight="bold" lengthAdjust="spacingAndGlyphs" textLength="18" x="25" y="176.6294">alt</text><text fill="#000000" font-family="sans-serif" font-size="11" font-weight="bold" lengthAdjust="spacingAndGlyphs" textLength="103" x="88" y="175.7729">[Ревью пройдено]</text><polygon fill="#383838" points="177,197.8281,187,201.8281,177,205.8281,181,201.8281" style="stroke:#383838;stroke-width:1.0;"/><line style="stroke:#383838;stroke-width:1.0;" x1="53" x2="183" y1="201.8281" y2="201.8281"/><text fill="#000000" font-family="sans-serif" font-size="13" lengthAdjust="spacingAndGlyphs" textLength="112" x="60" y="196.7622">Merge Pull Request</text><polygon fill="#383838" points="389.5,226.9609,399.5,230.9609,389.5,234.9609,393.5,230.9609" style="stroke:#383838;stroke-width:1.0;"/><line style="stroke:#383838;stroke-width:1.0;" x1="189" x2="395.5" y1="230.9609" y2="230.9609"/><text fill="#000000" font-family="sans-serif" font-size="13" lengthAdjust="spacingAndGlyphs" textLength="55" x="196" y="225.895">Артефакт</text><polygon fill="#383838" points="317,256.0938,307,260.0938,317,264.0938,313,260.0938" style="stroke:#383838;stroke-width:1.0;"/><line style="stroke:#383838;stroke-width:1.0;" x1="311" x2="400.5" y1="260.0938" y2="260.0938"/><text fill="#000000" font-family="sans-serif" font-size="13" lengthAdjust="spacingAndGlyphs" textLength="55" x="323" y="255.0278">Артефакт</text><!--MD5=[3469ebb91c65d3adc24208d674251040]
@startuml
skinparam monochrome true
actor Аналитик as analyst
database "Репозиторий с API" as repo
actor Разработчик as dev
participant Artifactory as nexus

analyst -> repo: Pull Request
dev - -> analyst: Code Review
alt Ревью пройдено
analyst -> repo: Merge Pull Request
repo -> nexus: Артефакт
nexus -> dev: Артефакт
end
@enduml

PlantUML version 1.2020.23(Sun Dec 13 19:14:58 GMT 2020)
(GPL source distribution)
Java Runtime: OpenJDK Runtime Environment
JVM: OpenJDK 64-Bit Server VM
Default Encoding: UTF-8
Language: en
Country: US
--></g></svg>